<?xml version="1.0" standalone="no"?>
<!DOCTYPE svg PUBLIC "-//W3C//DTD SVG 20010904//EN"
 "http://www.w3.org/TR/2001/REC-SVG-20010904/DTD/svg10.dtd">
<svg version="1.0" xmlns="http://www.w3.org/2000/svg"
 width="1707.000000pt" height="1707.000000pt" viewBox="0 0 1707.000000 1707.000000"
 preserveAspectRatio="xMidYMid meet">
<metadata>
Created by potrace 1.14, written by Peter Selinger 2001-2017
</metadata>
<g transform="translate(0.000000,1707.000000) scale(0.100000,-0.100000)"
fill="#000000" stroke="none">
<path d="M9245 13788 c-112 -15 -209 -59 -306 -140 -164 -136 -201 -212 -280
-573 -27 -122 -166 -790 -176 -845 -2 -14 -13 -67 -24 -119 -12 -51 -22 -103
-25 -115 -3 -18 -100 -494 -109 -536 -11 -52 -91 -440 -116 -565 -17 -82 -33
-159 -35 -170 -2 -11 -7 -33 -10 -50 -2 -16 -14 -70 -25 -120 -30 -136 -46
-218 -84 -413 -2 -13 -6 -31 -9 -40 -3 -9 -7 -28 -10 -42 -2 -14 -12 -61 -21
-105 -9 -44 -19 -91 -21 -105 -3 -14 -12 -59 -20 -100 -9 -41 -17 -83 -19 -93
-2 -10 -6 -26 -9 -35 -3 -9 -7 -34 -11 -56 -3 -21 -7 -41 -9 -45 -2 -3 -7 -22
-10 -41 -3 -19 -17 -91 -31 -160 -25 -119 -29 -140 -39 -192 -3 -13 -12 -57
-21 -98 -9 -41 -18 -91 -21 -110 -3 -19 -8 -38 -10 -41 -2 -3 -6 -21 -9 -40
-7 -42 -40 -204 -101 -494 -25 -121 -48 -231 -50 -245 -3 -14 -12 -59 -21
-100 -8 -41 -17 -84 -19 -95 -2 -11 -19 -95 -38 -187 -20 -91 -37 -177 -40
-190 -3 -12 -10 -48 -16 -78 -6 -30 -13 -66 -16 -80 -3 -14 -20 -99 -39 -190
-19 -91 -36 -176 -39 -190 -2 -14 -12 -58 -20 -97 -9 -40 -18 -85 -21 -100 -2
-16 -14 -73 -26 -128 -11 -55 -23 -111 -25 -125 -3 -14 -10 -45 -16 -70 -5
-25 -12 -58 -15 -75 -2 -16 -16 -82 -30 -145 -24 -114 -39 -188 -49 -245 -2
-16 -7 -38 -10 -47 -3 -9 -7 -27 -9 -40 -3 -13 -9 -45 -15 -73 -6 -27 -12 -61
-15 -74 -8 -41 -44 -218 -75 -366 -16 -77 -32 -156 -35 -175 -3 -19 -10 -51
-15 -70 -5 -19 -25 -114 -44 -210 -20 -96 -42 -206 -50 -245 -8 -38 -18 -86
-21 -105 -3 -19 -10 -53 -15 -75 -5 -22 -12 -56 -15 -75 -3 -19 -15 -75 -25
-125 -11 -49 -22 -103 -25 -120 -3 -16 -13 -73 -23 -125 -16 -83 -20 -188 -9
-240 2 -8 7 -33 12 -55 12 -63 88 -215 136 -272 121 -144 302 -231 489 -237
80 -3 117 0 195 18 162 35 357 190 430 340 28 59 90 292 110 416 3 19 8 43 11
52 3 9 7 27 9 40 3 13 20 97 39 188 20 91 37 176 40 190 2 14 30 147 61 295
31 149 60 293 65 320 15 77 16 82 43 210 14 66 28 131 30 145 4 20 12 58 22
110 1 3 4 19 8 35 4 17 9 41 11 55 2 14 12 58 20 97 9 40 18 87 21 105 4 18
10 51 15 73 10 43 96 461 104 508 3 15 7 35 10 45 3 9 7 28 10 42 2 14 12 61
21 105 9 44 19 91 21 105 3 14 16 77 29 140 13 63 27 131 30 150 3 19 21 105
40 190 18 85 36 169 38 185 3 17 21 107 41 200 19 94 37 181 40 195 2 14 18
90 35 170 16 80 32 156 35 170 2 14 12 61 21 105 9 44 19 89 21 100 2 11 26
128 53 260 55 267 78 378 85 415 3 14 12 59 21 100 9 41 19 86 21 100 2 14 7
36 10 50 3 14 8 36 10 50 3 14 13 66 24 115 10 50 22 106 25 125 3 19 10 51
15 70 5 19 12 49 15 65 11 62 17 94 55 277 22 103 42 202 45 220 3 18 11 53
16 78 6 25 13 56 15 70 5 24 32 160 39 190 2 8 8 36 14 63 6 26 14 64 17 85 3
20 7 45 10 54 3 10 7 30 10 45 3 16 13 69 24 118 10 50 21 101 23 115 3 14 8
36 11 50 3 14 8 36 10 50 2 14 25 124 50 245 38 181 105 506 122 590 2 11 6
31 9 45 3 14 7 34 9 45 2 11 23 110 45 220 23 110 55 268 72 350 39 190 35
172 60 289 63 300 -3 524 -210 709 -73 66 -195 129 -284 147 -73 15 -185 18
-262 8z"/>
<path d="M4080 12733 c-52 -8 -157 -46 -213 -75 -42 -23 -127 -99 -319 -287
-186 -182 -2363 -2346 -2502 -2487 -6 -7 -162 -164 -346 -350 -361 -366 -470
-479 -540 -563 -25 -29 -50 -59 -56 -65 -86 -91 -124 -341 -79 -525 25 -102
75 -173 271 -380 324 -343 3132 -3151 3429 -3429 157 -147 270 -192 474 -186
167 4 252 31 378 120 101 72 183 180 230 303 85 222 52 465 -84 623 -91 105
-177 196 -426 452 -65 66 -693 696 -1394 1399 -702 703 -1274 1279 -1272 1282
2 2 641 642 1419 1422 1671 1675 1691 1695 1729 1771 99 198 99 437 -2 624
-84 157 -247 285 -425 334 -55 15 -220 26 -272 17z"/>
<path d="M12810 12737 c-3 -3 -23 -7 -45 -11 -240 -35 -467 -247 -531 -496
-37 -144 -9 -356 65 -488 33 -61 174 -205 1746 -1780 765 -766 1392 -1395
1394 -1398 2 -2 -570 -579 -1272 -1281 -1901 -1904 -1872 -1874 -1918 -2022
-27 -89 -33 -132 -32 -221 4 -225 116 -429 303 -552 63 -42 137 -76 183 -83
18 -3 40 -8 49 -11 42 -13 208 -12 278 2 122 23 201 68 331 191 361 341 3210
3193 3446 3449 125 135 192 221 214 271 64 150 56 412 -16 538 -77 135 -184
244 -2141 2193 -1038 1034 -1417 1409 -1558 1540 -108 100 -228 147 -401 158
-49 4 -92 4 -95 1z"/>
</g>
</svg>
